<mxfile host="Electron" modified="2023-07-09T17:31:53.589Z" agent="Mozilla/5.0 (Macintosh; Intel Mac OS X 10_15_7) AppleWebKit/537.36 (KHTML, like Gecko) draw.io/21.6.1 Chrome/112.0.5615.204 Electron/24.6.1 Safari/537.36" etag="QVSAY7zPrSWUNKaUqQpA" version="21.6.1" type="device">
  <diagram name="Page-1" id="G5ZoAqC1fi166EP0a0sR">
    <mxGraphModel dx="5180" dy="2047" grid="1" gridSize="10" guides="1" tooltips="1" connect="1" arrows="1" fold="1" page="1" pageScale="1" pageWidth="2000" pageHeight="2000" math="0" shadow="0">
      <root>
        <mxCell id="0" />
        <mxCell id="1" parent="0" />
        <mxCell id="K0-xHpqB2Ia5JVHEsHb_-9" style="edgeStyle=orthogonalEdgeStyle;rounded=0;orthogonalLoop=1;jettySize=auto;html=1;entryX=0.575;entryY=-0.032;entryDx=0;entryDy=0;entryPerimeter=0;" edge="1" parent="1" source="XrRocAZbuMlK1vlsAnCC-2" target="XrRocAZbuMlK1vlsAnCC-3">
          <mxGeometry relative="1" as="geometry" />
        </mxCell>
        <mxCell id="XrRocAZbuMlK1vlsAnCC-2" value="START.&amp;nbsp; &amp;nbsp; &amp;nbsp; &amp;nbsp; &amp;nbsp;" style="triangle;whiteSpace=wrap;html=1;fillColor=#dae8fc;strokeColor=#6c8ebf;" parent="1" vertex="1">
          <mxGeometry x="-1440" y="100" width="90" height="120" as="geometry" />
        </mxCell>
        <mxCell id="K0-xHpqB2Ia5JVHEsHb_-1" style="edgeStyle=orthogonalEdgeStyle;rounded=0;orthogonalLoop=1;jettySize=auto;html=1;entryX=0.5;entryY=0;entryDx=0;entryDy=0;" edge="1" parent="1" source="XrRocAZbuMlK1vlsAnCC-3" target="XrRocAZbuMlK1vlsAnCC-4">
          <mxGeometry relative="1" as="geometry" />
        </mxCell>
        <mxCell id="XrRocAZbuMlK1vlsAnCC-3" value="SCAN FOR STICK-ON BARCODE CHIP" style="rounded=0;whiteSpace=wrap;html=1;fillColor=#f5f5f5;fontColor=#333333;strokeColor=#666666;" parent="1" vertex="1">
          <mxGeometry x="-1487.5" y="260" width="160" height="80" as="geometry" />
        </mxCell>
        <mxCell id="XrRocAZbuMlK1vlsAnCC-49" value="" style="group" parent="1" vertex="1" connectable="0">
          <mxGeometry x="-1790" y="370" width="465" height="1260" as="geometry" />
        </mxCell>
        <mxCell id="XrRocAZbuMlK1vlsAnCC-4" value="IS A MONTHLY CUSTOMER MEMBER?" style="ellipse;whiteSpace=wrap;html=1;fillColor=#ffe6cc;strokeColor=#d79b00;" parent="XrRocAZbuMlK1vlsAnCC-49" vertex="1">
          <mxGeometry x="302.5" y="30" width="150" height="100" as="geometry" />
        </mxCell>
        <mxCell id="XrRocAZbuMlK1vlsAnCC-23" value="" style="group" parent="XrRocAZbuMlK1vlsAnCC-49" vertex="1" connectable="0">
          <mxGeometry x="40" y="160" width="365" height="210" as="geometry" />
        </mxCell>
        <mxCell id="XrRocAZbuMlK1vlsAnCC-6" value="SELECT WASH OPTION:" style="rounded=0;whiteSpace=wrap;html=1;fillColor=#dae8fc;strokeColor=#6c8ebf;" parent="XrRocAZbuMlK1vlsAnCC-23" vertex="1">
          <mxGeometry x="100" width="160" height="80" as="geometry" />
        </mxCell>
        <mxCell id="XrRocAZbuMlK1vlsAnCC-7" value="BASIC:&amp;nbsp; $ 5.50" style="rounded=0;whiteSpace=wrap;html=1;fillColor=#fff2cc;strokeColor=#d6b656;" parent="XrRocAZbuMlK1vlsAnCC-23" vertex="1">
          <mxGeometry y="130" width="100" height="80" as="geometry" />
        </mxCell>
        <mxCell id="XrRocAZbuMlK1vlsAnCC-13" style="edgeStyle=orthogonalEdgeStyle;rounded=0;orthogonalLoop=1;jettySize=auto;html=1;entryX=0.57;entryY=-0.012;entryDx=0;entryDy=0;entryPerimeter=0;" parent="XrRocAZbuMlK1vlsAnCC-23" source="XrRocAZbuMlK1vlsAnCC-6" target="XrRocAZbuMlK1vlsAnCC-7" edge="1">
          <mxGeometry relative="1" as="geometry">
            <Array as="points">
              <mxPoint x="120" y="110" />
              <mxPoint x="57" y="110" />
            </Array>
          </mxGeometry>
        </mxCell>
        <mxCell id="XrRocAZbuMlK1vlsAnCC-11" value="CLEAN:&amp;nbsp; $ 8.75" style="rounded=0;whiteSpace=wrap;html=1;fillColor=#fff2cc;strokeColor=#d6b656;" parent="XrRocAZbuMlK1vlsAnCC-23" vertex="1">
          <mxGeometry x="130" y="130" width="100" height="80" as="geometry" />
        </mxCell>
        <mxCell id="XrRocAZbuMlK1vlsAnCC-14" style="edgeStyle=orthogonalEdgeStyle;rounded=0;orthogonalLoop=1;jettySize=auto;html=1;entryX=0.5;entryY=0;entryDx=0;entryDy=0;" parent="XrRocAZbuMlK1vlsAnCC-23" source="XrRocAZbuMlK1vlsAnCC-6" target="XrRocAZbuMlK1vlsAnCC-11" edge="1">
          <mxGeometry relative="1" as="geometry" />
        </mxCell>
        <mxCell id="XrRocAZbuMlK1vlsAnCC-12" value="SUPER CLEAN:&amp;nbsp; $ 12.50" style="rounded=0;whiteSpace=wrap;html=1;fillColor=#fff2cc;strokeColor=#d6b656;" parent="XrRocAZbuMlK1vlsAnCC-23" vertex="1">
          <mxGeometry x="265" y="130" width="100" height="80" as="geometry" />
        </mxCell>
        <mxCell id="XrRocAZbuMlK1vlsAnCC-15" style="edgeStyle=orthogonalEdgeStyle;rounded=0;orthogonalLoop=1;jettySize=auto;html=1;entryX=0.57;entryY=-0.012;entryDx=0;entryDy=0;entryPerimeter=0;" parent="XrRocAZbuMlK1vlsAnCC-23" source="XrRocAZbuMlK1vlsAnCC-6" target="XrRocAZbuMlK1vlsAnCC-12" edge="1">
          <mxGeometry relative="1" as="geometry">
            <Array as="points">
              <mxPoint x="240" y="110" />
              <mxPoint x="322" y="110" />
            </Array>
          </mxGeometry>
        </mxCell>
        <mxCell id="XrRocAZbuMlK1vlsAnCC-24" style="edgeStyle=orthogonalEdgeStyle;rounded=0;orthogonalLoop=1;jettySize=auto;html=1;" parent="XrRocAZbuMlK1vlsAnCC-49" source="XrRocAZbuMlK1vlsAnCC-4" target="XrRocAZbuMlK1vlsAnCC-6" edge="1">
          <mxGeometry relative="1" as="geometry" />
        </mxCell>
        <mxCell id="XrRocAZbuMlK1vlsAnCC-25" value="&lt;b&gt;&lt;font style=&quot;font-size: 18px;&quot;&gt;NO (logic 1)&lt;/font&gt;&lt;/b&gt;" style="edgeLabel;html=1;align=center;verticalAlign=middle;resizable=0;points=[];" parent="XrRocAZbuMlK1vlsAnCC-24" vertex="1" connectable="0">
          <mxGeometry x="0.3463" y="1" relative="1" as="geometry">
            <mxPoint as="offset" />
          </mxGeometry>
        </mxCell>
        <mxCell id="XrRocAZbuMlK1vlsAnCC-26" value="STORE AMOUNT BASED ON SELECTED WASH OPTION" style="rounded=0;whiteSpace=wrap;html=1;fillColor=#f5f5f5;fontColor=#333333;strokeColor=#666666;" parent="XrRocAZbuMlK1vlsAnCC-49" vertex="1">
          <mxGeometry x="142.5" y="420" width="160" height="80" as="geometry" />
        </mxCell>
        <mxCell id="XrRocAZbuMlK1vlsAnCC-28" value="START PROCESS CARD PAYMENT (NO CASH AVAILABLE)" style="rounded=0;whiteSpace=wrap;html=1;fillColor=#dae8fc;strokeColor=#6c8ebf;" parent="XrRocAZbuMlK1vlsAnCC-49" vertex="1">
          <mxGeometry x="142.5" y="540" width="160" height="80" as="geometry" />
        </mxCell>
        <mxCell id="XrRocAZbuMlK1vlsAnCC-29" value="PAYMENT APPROVED?" style="ellipse;whiteSpace=wrap;html=1;fillColor=#ffe6cc;strokeColor=#d79b00;" parent="XrRocAZbuMlK1vlsAnCC-49" vertex="1">
          <mxGeometry x="147.5" y="670" width="150" height="100" as="geometry" />
        </mxCell>
        <mxCell id="XrRocAZbuMlK1vlsAnCC-43" style="edgeStyle=orthogonalEdgeStyle;rounded=0;orthogonalLoop=1;jettySize=auto;html=1;entryX=0.5;entryY=0;entryDx=0;entryDy=0;" parent="XrRocAZbuMlK1vlsAnCC-49" source="XrRocAZbuMlK1vlsAnCC-26" target="XrRocAZbuMlK1vlsAnCC-28" edge="1">
          <mxGeometry relative="1" as="geometry" />
        </mxCell>
        <mxCell id="K0-xHpqB2Ia5JVHEsHb_-5" style="edgeStyle=orthogonalEdgeStyle;rounded=0;orthogonalLoop=1;jettySize=auto;html=1;entryX=0.5;entryY=0;entryDx=0;entryDy=0;" edge="1" parent="XrRocAZbuMlK1vlsAnCC-49" source="XrRocAZbuMlK1vlsAnCC-30" target="XrRocAZbuMlK1vlsAnCC-31">
          <mxGeometry relative="1" as="geometry" />
        </mxCell>
        <mxCell id="XrRocAZbuMlK1vlsAnCC-30" value="PRINT RECEIPT" style="rounded=0;whiteSpace=wrap;html=1;fillColor=#f5f5f5;fontColor=#333333;strokeColor=#666666;" parent="XrRocAZbuMlK1vlsAnCC-49" vertex="1">
          <mxGeometry x="260" y="810" width="100" height="80" as="geometry" />
        </mxCell>
        <mxCell id="XrRocAZbuMlK1vlsAnCC-44" style="edgeStyle=orthogonalEdgeStyle;rounded=0;orthogonalLoop=1;jettySize=auto;html=1;entryX=0.5;entryY=0;entryDx=0;entryDy=0;" parent="XrRocAZbuMlK1vlsAnCC-49" source="XrRocAZbuMlK1vlsAnCC-28" target="XrRocAZbuMlK1vlsAnCC-29" edge="1">
          <mxGeometry relative="1" as="geometry" />
        </mxCell>
        <mxCell id="XrRocAZbuMlK1vlsAnCC-36" style="edgeStyle=orthogonalEdgeStyle;rounded=0;orthogonalLoop=1;jettySize=auto;html=1;entryX=0.5;entryY=0;entryDx=0;entryDy=0;" parent="XrRocAZbuMlK1vlsAnCC-49" source="XrRocAZbuMlK1vlsAnCC-29" target="XrRocAZbuMlK1vlsAnCC-30" edge="1">
          <mxGeometry relative="1" as="geometry">
            <Array as="points">
              <mxPoint x="240" y="790" />
              <mxPoint x="310" y="790" />
            </Array>
          </mxGeometry>
        </mxCell>
        <mxCell id="XrRocAZbuMlK1vlsAnCC-37" value="&lt;b&gt;&lt;font style=&quot;font-size: 14px;&quot;&gt;YES&lt;/font&gt;&lt;/b&gt;" style="edgeLabel;html=1;align=center;verticalAlign=middle;resizable=0;points=[];" parent="XrRocAZbuMlK1vlsAnCC-36" vertex="1" connectable="0">
          <mxGeometry x="0.0852" y="-1" relative="1" as="geometry">
            <mxPoint y="1" as="offset" />
          </mxGeometry>
        </mxCell>
        <mxCell id="XrRocAZbuMlK1vlsAnCC-33" style="edgeStyle=orthogonalEdgeStyle;rounded=0;orthogonalLoop=1;jettySize=auto;html=1;entryX=0;entryY=0.5;entryDx=0;entryDy=0;" parent="XrRocAZbuMlK1vlsAnCC-49" source="XrRocAZbuMlK1vlsAnCC-32" target="XrRocAZbuMlK1vlsAnCC-6" edge="1">
          <mxGeometry relative="1" as="geometry">
            <Array as="points">
              <mxPoint y="850" />
              <mxPoint y="200" />
            </Array>
          </mxGeometry>
        </mxCell>
        <mxCell id="XrRocAZbuMlK1vlsAnCC-32" value="RESTART PROCESS" style="rounded=0;whiteSpace=wrap;html=1;fillColor=#f5f5f5;fontColor=#333333;strokeColor=#666666;" parent="XrRocAZbuMlK1vlsAnCC-49" vertex="1">
          <mxGeometry x="100" y="810" width="100" height="80" as="geometry" />
        </mxCell>
        <mxCell id="XrRocAZbuMlK1vlsAnCC-39" style="edgeStyle=orthogonalEdgeStyle;rounded=0;orthogonalLoop=1;jettySize=auto;html=1;entryX=0.25;entryY=0;entryDx=0;entryDy=0;" parent="XrRocAZbuMlK1vlsAnCC-49" source="XrRocAZbuMlK1vlsAnCC-7" target="XrRocAZbuMlK1vlsAnCC-26" edge="1">
          <mxGeometry relative="1" as="geometry">
            <Array as="points">
              <mxPoint x="90" y="390" />
              <mxPoint x="183" y="390" />
            </Array>
          </mxGeometry>
        </mxCell>
        <mxCell id="XrRocAZbuMlK1vlsAnCC-34" style="edgeStyle=orthogonalEdgeStyle;rounded=0;orthogonalLoop=1;jettySize=auto;html=1;entryX=0.25;entryY=0;entryDx=0;entryDy=0;" parent="XrRocAZbuMlK1vlsAnCC-49" source="XrRocAZbuMlK1vlsAnCC-29" target="XrRocAZbuMlK1vlsAnCC-32" edge="1">
          <mxGeometry relative="1" as="geometry">
            <Array as="points">
              <mxPoint x="210" y="790" />
              <mxPoint x="125" y="790" />
            </Array>
          </mxGeometry>
        </mxCell>
        <mxCell id="XrRocAZbuMlK1vlsAnCC-35" value="&lt;b&gt;&lt;font style=&quot;font-size: 14px;&quot;&gt;NO&lt;/font&gt;&lt;/b&gt;" style="edgeLabel;html=1;align=center;verticalAlign=middle;resizable=0;points=[];" parent="XrRocAZbuMlK1vlsAnCC-34" vertex="1" connectable="0">
          <mxGeometry x="0.2" y="-1" relative="1" as="geometry">
            <mxPoint x="1" as="offset" />
          </mxGeometry>
        </mxCell>
        <mxCell id="XrRocAZbuMlK1vlsAnCC-41" style="edgeStyle=orthogonalEdgeStyle;rounded=0;orthogonalLoop=1;jettySize=auto;html=1;entryX=0.5;entryY=0;entryDx=0;entryDy=0;" parent="XrRocAZbuMlK1vlsAnCC-49" source="XrRocAZbuMlK1vlsAnCC-11" target="XrRocAZbuMlK1vlsAnCC-26" edge="1">
          <mxGeometry relative="1" as="geometry" />
        </mxCell>
        <mxCell id="XrRocAZbuMlK1vlsAnCC-42" style="edgeStyle=orthogonalEdgeStyle;rounded=0;orthogonalLoop=1;jettySize=auto;html=1;entryX=0.75;entryY=0;entryDx=0;entryDy=0;" parent="XrRocAZbuMlK1vlsAnCC-49" source="XrRocAZbuMlK1vlsAnCC-12" target="XrRocAZbuMlK1vlsAnCC-26" edge="1">
          <mxGeometry relative="1" as="geometry">
            <Array as="points">
              <mxPoint x="355" y="390" />
              <mxPoint x="263" y="390" />
            </Array>
          </mxGeometry>
        </mxCell>
        <mxCell id="XrRocAZbuMlK1vlsAnCC-31" value="PROCEED TO WASH" style="rhombus;whiteSpace=wrap;html=1;fillColor=#d5e8d4;strokeColor=#82b366;" parent="XrRocAZbuMlK1vlsAnCC-49" vertex="1">
          <mxGeometry x="151.25" y="940" width="140" height="140" as="geometry" />
        </mxCell>
        <mxCell id="XrRocAZbuMlK1vlsAnCC-46" value="END" style="rounded=0;whiteSpace=wrap;html=1;fillColor=#f8cecc;strokeColor=#b85450;" parent="XrRocAZbuMlK1vlsAnCC-49" vertex="1">
          <mxGeometry x="140" y="1130" width="162.5" height="130" as="geometry" />
        </mxCell>
        <mxCell id="K0-xHpqB2Ia5JVHEsHb_-4" style="edgeStyle=orthogonalEdgeStyle;rounded=0;orthogonalLoop=1;jettySize=auto;html=1;entryX=0.5;entryY=0;entryDx=0;entryDy=0;" edge="1" parent="XrRocAZbuMlK1vlsAnCC-49" source="XrRocAZbuMlK1vlsAnCC-31" target="XrRocAZbuMlK1vlsAnCC-46">
          <mxGeometry relative="1" as="geometry" />
        </mxCell>
        <mxCell id="K0-xHpqB2Ia5JVHEsHb_-2" value="&lt;b&gt;&lt;font style=&quot;font-size: 24px;&quot;&gt;HIRAN BORBA&lt;br&gt;ID. 147216220&lt;br&gt;APS145-W7-G5-M4&lt;/font&gt;&lt;/b&gt;" style="text;html=1;align=left;verticalAlign=middle;resizable=0;points=[];autosize=1;strokeColor=none;fillColor=none;" vertex="1" parent="1">
          <mxGeometry x="-1955" y="60" width="240" height="100" as="geometry" />
        </mxCell>
        <mxCell id="K0-xHpqB2Ia5JVHEsHb_-6" value="&lt;b&gt;PROCEED LOGIC 2&lt;br&gt;PROCEED LOGIC 3&lt;/b&gt;" style="rounded=1;whiteSpace=wrap;html=1;fillColor=#e1d5e7;strokeColor=#9673a6;" vertex="1" parent="1">
          <mxGeometry x="-1240" y="420" width="120" height="60" as="geometry" />
        </mxCell>
        <mxCell id="K0-xHpqB2Ia5JVHEsHb_-7" style="edgeStyle=orthogonalEdgeStyle;rounded=0;orthogonalLoop=1;jettySize=auto;html=1;entryX=0;entryY=0.5;entryDx=0;entryDy=0;" edge="1" parent="1" source="XrRocAZbuMlK1vlsAnCC-4" target="K0-xHpqB2Ia5JVHEsHb_-6">
          <mxGeometry relative="1" as="geometry">
            <mxPoint x="-1260" y="450" as="targetPoint" />
          </mxGeometry>
        </mxCell>
        <mxCell id="K0-xHpqB2Ia5JVHEsHb_-8" value="&lt;b&gt;&lt;font style=&quot;font-size: 14px;&quot;&gt;YES&lt;/font&gt;&lt;/b&gt;" style="edgeLabel;html=1;align=center;verticalAlign=middle;resizable=0;points=[];" vertex="1" connectable="0" parent="K0-xHpqB2Ia5JVHEsHb_-7">
          <mxGeometry x="-0.0645" y="-1" relative="1" as="geometry">
            <mxPoint as="offset" />
          </mxGeometry>
        </mxCell>
      </root>
    </mxGraphModel>
  </diagram>
</mxfile>
